<?xml version="1.0" standalone="no"?>
<!DOCTYPE svg PUBLIC "-//W3C//DTD SVG 20010904//EN"
 "http://www.w3.org/TR/2001/REC-SVG-20010904/DTD/svg10.dtd">
<svg version="1.0" xmlns="http://www.w3.org/2000/svg"
 width="701.000000pt" height="701.000000pt" viewBox="0 0 701.000000 701.000000"
 preserveAspectRatio="xMidYMid meet">
<metadata>
Created by potrace 1.14, written by Peter Selinger 2001-2017
</metadata>
<g transform="translate(0.000000,701.000000) scale(0.100000,-0.100000)"
fill="#000000" stroke="none">
<path d="M3271 6189 c-220 -20 -479 -78 -687 -154 -123 -45 -394 -177 -494
-241 -621 -395 -1048 -998 -1204 -1699 -42 -187 -58 -329 -62 -543 l-3 -202
-32 -66 c-61 -123 -48 -204 42 -273 32 -24 47 -45 57 -77 l13 -44 160 0 161 0
60 -35 c64 -38 121 -64 152 -71 17 -3 64 -17 106 -30 16 -6 -54 -54 -142 -100
-45 -23 -56 -24 -233 -24 -102 0 -185 -3 -185 -7 0 -4 12 -38 26 -76 15 -38
23 -72 18 -77 -5 -5 -69 -33 -142 -64 -122 -51 -212 -78 -212 -63 0 4 23 22
51 41 45 30 90 76 75 76 -3 0 -52 -22 -108 -49 -57 -26 -152 -65 -211 -86 -60
-21 -111 -44 -114 -51 -8 -21 25 -71 60 -93 93 -57 306 -72 454 -33 150 40
315 104 485 189 l168 83 2215 0 2214 0 15 29 c18 34 66 160 66 172 0 5 -525 9
-1223 9 -673 0 -1474 3 -1780 7 l-556 6 62 57 62 57 155 7 c143 7 495 21 770
32 63 2 266 11 450 19 184 9 463 20 620 25 157 5 310 12 340 15 172 17 421 28
779 34 l405 6 17 80 c44 197 69 544 52 709 l-8 80 -82 -96 c-110 -127 -235
-243 -294 -274 -62 -31 -141 -48 -185 -39 -75 14 -147 120 -162 241 l-7 57
-95 -114 c-109 -130 -232 -256 -293 -298 -58 -39 -127 -61 -196 -61 -72 0
-114 26 -148 90 -20 37 -24 57 -21 113 2 37 1 67 -1 67 -2 0 -56 -51 -121
-114 -148 -142 -294 -253 -408 -308 -79 -39 -94 -43 -164 -43 -74 0 -79 2
-109 31 l-32 32 53 76 c59 86 70 96 70 67 0 -55 80 -45 228 29 130 65 237 150
462 365 55 52 112 98 135 107 22 9 60 24 85 33 25 10 55 22 67 28 13 6 26 8
29 4 3 -3 -10 -44 -30 -90 -33 -76 -76 -220 -76 -253 0 -7 7 -19 15 -28 12
-12 22 -13 45 -5 34 12 231 180 421 359 106 101 140 139 153 174 12 31 24 46
35 46 10 0 21 3 25 7 3 4 12 8 19 9 11 1 99 27 307 88 25 8 47 12 49 10 2 -2
-55 -64 -127 -138 -141 -147 -177 -202 -177 -276 0 -53 26 -100 56 -100 51 0
150 74 345 256 l112 104 -15 77 c-8 43 -23 111 -33 151 l-18 73 90 112 c169
210 358 525 358 596 0 21 -10 38 -35 60 -51 44 -95 42 -171 -7 -91 -59 -210
-157 -306 -250 -49 -47 -89 -84 -91 -81 -2 2 -30 54 -61 114 -356 680 -1020
1193 -1766 1364 -276 63 -576 84 -849 60z m3029 -1457 c-58 -103 -233 -361
-241 -356 -5 3 -14 22 -20 44 -11 37 -10 41 27 92 129 178 257 321 262 293 2
-9 -11 -41 -28 -73z m-4406 -724 c-126 -140 -314 -273 -559 -397 -149 -75
-269 -133 -285 -136 -3 -1 -16 -6 -30 -12 -100 -42 -150 -61 -150 -56 0 16 90
119 168 195 175 168 460 320 767 408 55 16 104 29 109 29 6 1 -3 -14 -20 -31z
m236 -1325 l19 -43 -162 0 -162 0 50 45 50 45 93 -3 93 -2 19 -42z"/>
<path d="M6496 4269 c-15 -17 -25 -34 -22 -36 3 -3 21 -2 41 1 38 7 48 33 21
55 -11 9 -19 5 -40 -20z"/>
<path d="M1199 2148 l30 -53 2280 -3 2279 -2 31 50 c17 28 31 52 31 55 0 3
-1053 5 -2341 5 l-2341 0 31 -52z"/>
<path d="M1370 1893 c0 -5 17 -27 38 -50 l37 -43 580 -1 c319 0 1250 0 2070 1
l1490 1 33 44 c17 24 32 47 32 50 0 3 -963 5 -2140 5 -1177 0 -2140 -3 -2140
-7z"/>
<path d="M1648 1578 l52 -53 1810 0 1810 0 52 53 53 52 -1915 0 -1915 0 53
-52z"/>
<path d="M1950 1325 l75 -54 1483 -1 1484 0 74 51 c41 28 74 53 74 55 0 2
-734 4 -1632 4 l-1632 0 74 -55z"/>
<path d="M2244 1141 c3 -5 62 -34 130 -65 l125 -56 1011 0 1012 0 91 42 c51
24 110 53 132 65 l40 23 -1273 0 c-728 0 -1271 -4 -1268 -9z"/>
<path d="M2890 899 c242 -62 542 -88 789 -70 171 12 351 39 466 70 l70 19
-700 0 -700 0 75 -19z"/>
</g>
</svg>
